<svg xmlns="http://www.w3.org/2000/svg" viewBox="0 0 1100 171" width="1100" height="171">
	<style>
		tspan { white-space:pre }
		.shp0 { fill: #242d36 } 
		.shp1 { fill: green } 
	</style>
	<g id="Layer 1">
		<g id="&lt;Group&gt;">
			<g id="&lt;Group&gt;">
				<path id="&lt;Compound Path&gt;" class="shp0" d="M453.3 63.19L421.45 105.65L417.82 105.65L386.67 63.05L386.67 134.15L368.23 134.15L368.23 36.37L389.46 36.37L420.05 78.41L450.64 36.37L471.74 36.37L471.74 134.15L453.3 134.15L453.3 63.19Z" />
				<path id="&lt;Compound Path&gt;" fill-rule="evenodd" class="shp0" d="M549.26 99.65C549.26 119.48 535.71 135.55 513.36 135.55C491.01 135.55 477.6 119.48 477.6 99.65C477.6 79.95 491.29 63.75 513.22 63.75C535.15 63.75 549.26 79.95 549.26 99.65ZM494.64 99.65C494.64 110.12 500.93 119.9 513.36 119.9C525.79 119.9 532.08 110.12 532.08 99.65C532.08 89.31 524.81 79.25 513.36 79.25C501.07 79.25 494.64 89.31 494.64 99.65Z" />
				<path id="&lt;Compound Path&gt;" class="shp0" d="M605.97 134.01L605.97 97.97C605.97 87.49 600.24 79.53 589.35 79.53C578.87 79.53 571.75 88.33 571.75 98.81L571.75 134.01L554.85 134.01L554.85 65L570.07 65L571.19 74.36C578.17 67.52 585.16 64.03 593.82 64.03C610.02 64.03 623.01 76.18 623.01 97.83L623.01 134.01L605.97 134.01Z" />
				<path id="&lt;Compound Path&gt;" fill-rule="evenodd" class="shp0" d="M646.48 105.65C647.6 114.17 655 120.32 667.01 120.32C673.3 120.32 681.54 117.95 685.45 113.9L696.35 124.65C689.08 132.19 677.21 135.83 666.73 135.83C642.99 135.83 628.88 121.16 628.88 99.09C628.88 78.14 643.13 63.05 665.48 63.05C688.53 63.05 702.91 77.3 700.26 105.65L646.48 105.65ZM683.92 91.55C682.8 82.61 675.81 78.14 666.04 78.14C656.82 78.14 649.27 82.61 646.76 91.55L683.92 91.55Z" />
				<path id="&lt;Compound Path&gt;" class="shp0" d="M728.75 45.73L728.75 65.28L747.75 65.28L747.75 79.95L728.61 79.95L728.61 109.7C728.61 116.27 732.25 119.48 737.55 119.48C740.21 119.48 743.28 118.64 745.79 117.39L750.54 131.91C745.66 133.87 741.6 134.71 736.44 134.85C721.49 135.41 711.71 126.89 711.71 109.7L711.71 79.95L698.86 79.95L698.86 65.28L711.71 65.28L711.71 47.54L728.75 45.73Z" />
				<path id="&lt;Compound Path&gt;" fill-rule="evenodd" class="shp0" d="M753.2 45.73C753.2 59 773.31 59 773.31 45.73C773.31 32.46 753.2 32.46 753.2 45.73ZM754.73 64.87L754.73 134.01L771.77 134.01L771.77 64.87L754.73 64.87Z" />
				<path id="&lt;Compound Path&gt;" class="shp0" d="M834.77 65.14L834.77 73.25L803.06 117.25L835.05 117.25L835.05 134.01L777.08 134.01L777.08 126.89L810.05 80.65L779.6 80.65L779.6 65.14L834.77 65.14Z" />
				<path id="&lt;Compound Path&gt;" fill-rule="evenodd" class="shp0" d="M854.05 105.65C855.16 114.17 862.57 120.32 874.58 120.32C880.87 120.32 889.11 117.95 893.02 113.9L903.91 124.65C896.65 132.19 884.78 135.83 874.3 135.83C850.55 135.83 836.45 121.16 836.45 99.09C836.45 78.14 850.69 63.05 873.04 63.05C896.09 63.05 910.48 77.3 907.83 105.65L854.05 105.65ZM891.48 91.55C890.36 82.61 883.38 78.14 873.6 78.14C864.38 78.14 856.84 82.61 854.33 91.55L891.48 91.55Z" />
				<path id="&lt;Compound Path&gt;" fill-rule="evenodd" class="shp0" d="M996.39 134.01L985.63 109.98L927.24 109.98L916.62 134.01L908.52 134.01L952.38 36.23L960.63 36.23L1004.49 134.01L996.39 134.01ZM982.7 103L956.43 43.49L930.17 103L982.7 103Z" />
				<path id="&lt;Compound Path&gt;" fill-rule="evenodd" class="shp0" d="M1071.81 36.23L1071.81 134.01L1065.11 134.01L1065.11 118.78C1059.38 129.26 1048.07 135.13 1036.33 135.13C1017.05 135.13 1001.83 122.42 1001.83 99.51C1001.83 76.74 1017.19 63.89 1036.47 63.89C1048.34 63.89 1059.52 68.92 1065.11 80.09L1065.11 36.23L1071.81 36.23ZM1008.53 99.51C1008.53 118.64 1021.25 128.42 1036.75 128.42C1052.95 128.42 1064.97 116.55 1064.97 99.37C1064.97 82.19 1052.67 70.45 1036.75 70.45C1021.25 70.45 1008.53 80.09 1008.53 99.51Z" />
			</g>
			<path id="&lt;Path&gt;" class="shp1" d="M246.98 9.7C218.7 9.7 194.05 25.43 181.25 48.59L219.27 87.21C219.2 86.41 219.16 85.6 219.16 84.78C219.16 69.43 231.64 56.95 246.98 56.95C262.33 56.95 274.81 69.43 274.81 84.78C274.81 100.12 262.33 112.61 246.98 112.61C242.83 112.61 238.9 111.67 235.36 110.02C235.34 110.01 235.32 110 235.3 109.99C234.8 109.75 234.31 109.5 233.82 109.24L233.82 109.25C231.28 107.86 229.18 106.13 227.76 104.81L225.79 102.82L225.79 102.82L178.28 54.56L156.51 32.45C156.17 31.91 154.26 30.15 150.81 27.18C137.78 16.28 121.02 9.7 102.74 9.7C61.34 9.7 27.66 43.38 27.66 84.78C27.66 126.18 61.34 159.86 102.74 159.86C131.04 159.86 155.71 144.1 168.5 120.92L130.44 82.26C130.52 83.09 130.57 83.93 130.57 84.78C130.57 100.12 118.09 112.61 102.74 112.61C87.4 112.61 74.91 100.12 74.91 84.78C74.91 69.43 87.4 56.95 102.74 56.95C107.69 56.95 112.32 58.28 116.34 60.56C118.69 61.98 120.52 63.31 121.84 64.54L122.29 65.01L122.29 65.01L122.55 65.27L122.55 65.27L189.64 133.41L191.39 135.18L191.39 135.18L193.82 137.65C193.92 138.07 195.84 139.84 199.58 142.95C212.52 153.51 229.02 159.86 246.98 159.86C288.38 159.86 322.07 126.18 322.07 84.78C322.07 43.38 288.38 9.7 246.98 9.7Z" />
		</g>
	</g>
</svg>